<svg xmlns="http://www.w3.org/2000/svg"><symbol viewBox="0 0 12.54 11.99" id="icon-heart"><g id="icon-heart-Layer_2" data-name="Layer 2"><g id="icon-heart-Layer_1-2" data-name="Layer 1"><path fill="#d22856" d="M6.24,12a.74.74,0,0,1-.55-.25C1.89,7.42,1,6.44.83,6.17h0A3.86,3.86,0,0,1,0,3.8,3.82,3.82,0,0,1,6.28.9,3.85,3.85,0,0,1,8.75,0a3.8,3.8,0,0,1,3.8,3.8,3.49,3.49,0,0,1-.9,2.38L6.79,11.74a.73.73,0,0,1-.55.25ZM2,5.28c.21.25,2.47,2.84,4.24,4.86L10.56,5.2a2,2,0,0,0,.52-1.4A2.33,2.33,0,0,0,8.75,1.47a2.44,2.44,0,0,0-1.9.94.76.76,0,0,1-.58.28.73.73,0,0,1-.58-.29A2.35,2.35,0,0,0,1.47,3.8,2.36,2.36,0,0,0,2,5.27Z"/></g></g></symbol></svg>