<!DOCTYPE svg PUBLIC "-//W3C//DTD SVG 20010904//EN" "http://www.w3.org/TR/2001/REC-SVG-20010904/DTD/svg10.dtd">
<svg version="1.0" xmlns="http://www.w3.org/2000/svg" width="298px" height="345px" viewBox="0 0 2980 3450" preserveAspectRatio="xMidYMid meet">
<g id="layer101" fill="#d22856" stroke="none">
 <path d="M1235 3434 c-324 -60 -571 -189 -800 -419 -159 -158 -256 -304 -335 -502 -68 -171 -91 -289 -97 -500 -6 -199 3 -286 43 -442 142 -545 611 -981 1162 -1078 l92 -17 0 -43 0 -43 -62 0 c-156 -1 -248 -116 -208 -260 11 -40 71 -104 113 -119 38 -15 656 -15 694 0 15 5 45 27 66 47 56 55 72 136 42 210 -34 81 -102 121 -202 122 l-63 0 0 43 0 43 94 17 c188 33 388 116 556 231 l94 64 45 -38 c65 -54 103 -70 161 -70 93 0 140 45 140 135 0 60 -19 104 -71 160 l-42 46 32 42 c142 189 246 442 281 685 20 136 8 422 -24 555 -130 551 -562 982 -1114 1114 -93 22 -135 26 -312 29 -152 2 -226 -1 -285 -12z m365 -384 c185 -23 375 -95 519 -197 206 -147 364 -379 431 -634 30 -117 38 -313 16 -436 -121 -696 -847 -1101 -1494 -834 -283 117 -511 357 -615 646 -82 230 -82 500 0 730 130 360 447 635 818 709 135 26 208 30 325 16z"/>
 <path d="M830 2288 l1 -63 178 -186 c98 -103 186 -204 196 -225 28 -57 26 -116 -5 -149 -23 -25 -30 -27 -86 -23 -51 3 -72 10 -119 41 -31 21 -60 37 -65 35 -10 -4 -100 -110 -100 -118 0 -13 95 -74 149 -97 45 -18 74 -22 151 -22 104 0 151 12 205 53 56 43 80 98 79 186 0 115 -34 172 -203 338 l-135 132 182 0 182 0 0 80 0 80 -305 0 -305 0 0 -62z"/>
 <path d="M1850 2265 l0 -85 -180 0 -180 0 0 -73 0 -72 183 -270 184 -270 91 -3 92 -3 0 271 0 270 50 0 50 0 0 75 0 75 -50 0 -50 0 0 85 0 85 -95 0 -95 0 0 -85z m0 -359 c0 -68 3 -139 6 -157 5 -28 -3 -19 -43 47 -28 45 -74 115 -102 157 l-52 77 96 0 95 0 0 -124z"/>
 </g>
<g id="layer102" fill="#dedede" stroke="none">
 <path d="M1235 3434 c-324 -60 -571 -189 -800 -419 -159 -158 -256 -304 -335 -502 -68 -171 -91 -289 -97 -500 -6 -199 3 -286 43 -442 142 -545 611 -981 1162 -1078 l92 -17 0 -43 0 -43 -62 0 c-156 -1 -248 -116 -208 -260 11 -40 71 -104 113 -119 38 -15 656 -15 694 0 15 5 45 27 66 47 56 55 72 136 42 210 -34 81 -102 121 -202 122 l-63 0 0 43 0 43 94 17 c188 33 388 116 556 231 l94 64 45 -38 c65 -54 103 -70 161 -70 93 0 140 45 140 135 0 60 -19 104 -71 160 l-42 46 32 42 c142 189 246 442 281 685 20 136 8 422 -24 555 -130 551 -562 982 -1114 1114 -93 22 -135 26 -312 29 -152 2 -226 -1 -285 -12z m452 -229 c471 -76 864 -417 1007 -873 74 -237 74 -517 0 -754 -138 -438 -500 -766 -956 -864 -116 -26 -390 -26 -506 0 -502 108 -880 486 -988 988 -26 116 -26 390 0 506 98 457 426 818 865 956 174 55 396 71 578 41z"/>
 <path d="M826 2840 c-22 -17 -35 -30 -30 -30 9 1 83 59 74 59 -3 0 -23 -13 -44 -29z"/>
 <path d="M724 2752 c-22 -20 -49 -48 -59 -62 -11 -14 9 2 43 35 57 54 67 65 60 65 -2 0 -21 -17 -44 -38z"/>
 <path d="M577 2578 c-30 -46 -67 -107 -81 -136 -36 -72 -83 -217 -90 -277 -4 -37 -1 -30 13 30 36 151 100 293 183 403 22 30 38 56 35 58 -3 3 -30 -32 -60 -78z"/>
 <path d="M393 2055 c0 -22 2 -30 4 -17 2 12 2 30 0 40 -3 9 -5 -1 -4 -23z"/>
 <path d="M393 1865 c0 -22 2 -30 4 -17 2 12 2 30 0 40 -3 9 -5 -1 -4 -23z"/>
 <path d="M402 1780 c0 -14 4 -36 8 -50 6 -20 8 -21 8 -5 0 11 -4 34 -8 50 -7 27 -8 27 -8 5z"/>
 <path d="M430 1652 c-1 -48 118 -285 184 -362 39 -48 31 -26 -13 33 -53 71 -106 169 -141 263 -16 44 -29 73 -30 66z"/>
 <path d="M681 1213 c13 -16 39 -41 59 -57 19 -17 11 -5 -20 27 -58 61 -76 75 -39 30z"/>
 <path d="M820 1085 c19 -14 36 -25 39 -25 10 0 -53 49 -63 50 -6 0 5 -11 24 -25z"/>
 <path d="M895 1035 c22 -18 86 -53 70 -38 -5 6 -28 20 -50 32 -22 13 -31 15 -20 6z"/>
 </g>

</svg>